<?xml version="1.0" encoding="UTF-8"?>
<svg id="Logos" xmlns="http://www.w3.org/2000/svg" version="1.1" viewBox="0 0 93.7 93.6">
  <!-- Generator: Adobe Illustrator 30.3.0, SVG Export Plug-In . SVG Version: 2.1.3 Build 182)  -->
  <defs>
    <style>
      .st0 {
        fill: #fff;
      }
    </style>
  </defs>
  <g>
    <path class="st0" d="M31.7,93.6h-9.3c-12.4,0-22.4-10-22.4-22.4V22.4C0,10,10,0,22.4,0h9.3v.9h-9.3C10.5.9.9,10.5.9,22.4v48.8c0,11.9,9.6,21.5,21.5,21.5h9.3v.9Z"/>
    <path class="st0" d="M71.3,93.6h-9.3v-.9h9.3c11.9,0,21.5-9.6,21.5-21.5V22.4c0-11.9-9.6-21.5-21.5-21.5h-9.3v-.9h9.3c12.4,0,22.4,10,22.4,22.4v48.8c0,12.4-10,22.4-22.4,22.4Z"/>
  </g>
  <path class="st0" d="M48.4,70.6c-3.9,0-7.4-1-10.4-2.9-3-1.9-5.3-4.7-6.9-8.3-1.6-3.6-2.4-7.7-2.4-12.4s.8-8.7,2.5-12.3c1.7-3.6,4-6.4,7-8.5,3-2,6.4-3,10.2-3s4,.3,5.6.8,3.1,1.4,4.3,2.6v-.6c0-.2,0-.4,0-.6v-1.1c0-.4.1-.6.4-.9.2-.2.5-.3.8-.3h1.2c.4,0,.6.1.9.3.2.2.3.5.3.9v3.4c-.2,1.6-.2,2.8-.2,3.5s0,1.9.1,3.5v3.5c0,.3,0,.6-.3.8-.2.2-.5.4-.9.4h-1.4c-.4,0-.6-.1-.9-.3-.2-.2-.3-.5-.3-.8,0-3.6-.7-6.5-2.2-8.7-1.5-2.2-3.8-3.3-6.9-3.3s-4.7.8-6.6,2.5c-1.9,1.7-3.3,4-4.4,7.1-1,3.1-1.5,6.6-1.5,10.6s.5,8,1.5,11.1c1,3.1,2.5,5.5,4.5,7.2,1.9,1.7,4.3,2.5,6.9,2.5s4-.4,5.3-1.1c1.3-.8,2.4-2,3.1-3.7.7-1.7,1.2-4,1.4-6.9,0-.4.2-.6.4-.9.2-.2.5-.3.8-.3h1.2c.4,0,.6.1.9.3.2.2.3.5.3.9s0,.7,0,1.1c0,.4,0,.7,0,1.1,0,.4,0,.8-.1,1.2,0,.4,0,.8,0,1.2,0,.9,0,2,.1,3.2v2.1c0,.4,0,.7-.2,1-.2.2-.5.5-.9.8-2.1,1.2-4.1,2.1-6.1,2.6-2,.5-4.4.8-7,.8Z"/>
</svg>