<?xml version="1.0" encoding="UTF-8"?>
<svg id="Logos" xmlns="http://www.w3.org/2000/svg" version="1.1" viewBox="0 0 588.3 93.9">
  <!-- Generator: Adobe Illustrator 30.3.0, SVG Export Plug-In . SVG Version: 2.1.3 Build 182)  -->
  <defs>
    <style>
      .st0 {
        fill: #fff;
      }
    </style>
  </defs>
  <g>
    <g>
      <path class="st0" d="M48.1,70.6c-3.9,0-7.4-1-10.4-2.9-3-1.9-5.3-4.7-6.9-8.3-1.6-3.6-2.4-7.7-2.4-12.4s.8-8.7,2.5-12.3c1.7-3.6,4-6.4,7-8.5,3-2,6.4-3,10.2-3s4,.3,5.6.8,3.1,1.4,4.3,2.6v-.6c0-.2,0-.4,0-.6v-1.1c0-.4.1-.6.4-.9.2-.2.5-.3.8-.3h1.2c.4,0,.6.1.9.3.2.2.3.5.3.9v3.4c-.2,1.6-.2,2.8-.2,3.5s0,1.9.1,3.5v3.5c0,.3,0,.6-.3.8-.2.2-.5.4-.9.4h-1.4c-.4,0-.6-.1-.9-.3-.2-.2-.3-.5-.3-.8,0-3.6-.7-6.5-2.2-8.7-1.5-2.2-3.8-3.3-6.9-3.3s-4.7.8-6.6,2.5c-1.9,1.7-3.3,4-4.4,7.1-1,3.1-1.5,6.6-1.5,10.6s.5,8,1.5,11.1c1,3.1,2.5,5.5,4.5,7.2,1.9,1.7,4.3,2.5,6.9,2.5s4-.4,5.3-1.1c1.3-.8,2.4-2,3.1-3.7.7-1.7,1.2-4,1.4-6.9,0-.4.2-.6.4-.9.2-.2.5-.3.8-.3h1.2c.4,0,.6.1.9.3.2.2.3.5.3.9s0,.7,0,1.1c0,.4,0,.7,0,1.1,0,.4,0,.8-.1,1.2,0,.4,0,.8,0,1.2,0,.9,0,2,.1,3.2v2.1c0,.4,0,.7-.2,1-.2.2-.5.5-.9.8-2.1,1.2-4.1,2.1-6.1,2.6-2,.5-4.4.8-7,.8Z"/>
      <path class="st0" d="M86.8,70.6c-4.6,0-8-1.3-10.4-3.8-2.4-2.5-3.6-6.3-3.6-11.2v-25.2c0-1.3-.1-2.2-.4-2.7-.3-.5-.9-.7-1.8-.7h-.5c-.4,0-.6-.1-.9-.3-.2-.2-.3-.5-.3-.8v-.7c0-.4.1-.6.4-.9.2-.2.5-.3.8-.3h3.2c1.3.2,2.4.2,3.1.2s2,0,3.6-.1h3.6c.4,0,.6,0,.9.3s.3.5.3.9v.7c0,.4-.1.6-.4.9s-.6.3-1.1.3h-1c-.9,0-1.6.2-1.9.7-.3.4-.5,1.3-.5,2.7v25.7c0,3.1.6,5.6,1.9,7.5,1.3,1.9,3.4,2.8,6.4,2.8s5.2-1.1,6.7-3.2c1.5-2.1,2.2-5.2,2.2-9.3v-24.2c0-1.1-.1-1.8-.4-2.2-.3-.3-1-.5-2.2-.5h-2.3c-.3,0-.6-.1-.8-.4s-.4-.5-.4-.8v-.7c0-.4.1-.6.4-.9s.5-.3.8-.3h3.5c1.5.2,2.7.2,3.4.2s1.3,0,2.3-.1h2.3c.4,0,.6,0,.9.3s.3.5.3.9v.7c0,.3-.1.6-.3.8s-.5.4-.9.4h-.5c-1,0-1.7.2-2.1.6s-.6,1.1-.6,2.1v25.4c0,4.7-1.2,8.5-3.5,11.3-2.3,2.8-5.8,4.2-10.4,4.2Z"/>
      <path class="st0" d="M111,69.8c-.4,0-.7-.1-.9-.3-.2-.2-.4-.5-.4-.9v-.9c0-.4.1-.7.4-.9s.5-.4.9-.4h5.1c1.2,0,2.1-.1,2.6-.3.5-.2.9-.6,1.1-1.3.2-.6.3-1.7.3-3.1v-29.8c0-1.4-.1-2.4-.3-3-.2-.6-.6-1-1.1-1.3-.5-.2-1.4-.3-2.6-.3h-5.1c-.4,0-.7-.1-.9-.4s-.4-.5-.4-.9v-.9c0-.4.1-.6.4-.9.2-.2.5-.3.9-.3,1.9,0,4.2,0,6.9.1,2.5,0,4.4.1,5.7.1s3.2,0,5.7-.1c2.7,0,5-.1,6.9-.1s.7.1.9.3c.2.2.4.5.4.9v.9c0,.4-.1.7-.4.9s-.5.4-.9.4h-5.1c-1.2,0-2.1.1-2.6.3-.5.2-.9.6-1.1,1.3-.2.6-.3,1.6-.3,3v29.8c0,1.4.1,2.5.3,3.1.2.6.6,1.1,1.1,1.3.5.2,1.4.3,2.6.3h5.1c.4,0,.7.1.9.4s.4.5.4.9v.9c0,.4-.1.6-.4.9-.2.2-.5.3-.9.3-1.9,0-4.2,0-6.9-.1-2.5,0-4.4-.1-5.7-.1s-3.2,0-5.7.1c-2.7,0-5,.1-6.9.1Z"/>
      <path class="st0" d="M146.5,70.6c-.3,0-.6-.1-.8-.3s-.4-.5-.4-.9c0-.9,0-2.2.1-4v-4c0,0,0-2.9,0-2.9,0-1.3-.1-2.3-.1-2.9s.1-.6.4-.9.5-.3.8-.3h1.4c.4,0,.6.1.9.4.2.2.3.5.3.9,0,3.8,1,6.7,3,8.7,2,2.1,4.7,3.1,8,3.1s4.4-.6,5.8-1.9c1.4-1.3,2.1-3,2.1-5.2s-.5-3.6-1.5-4.8c-1-1.2-2.8-2.4-5.4-3.6l-5.4-2.4c-3.8-1.7-6.5-3.6-8.1-5.7-1.7-2.2-2.5-5-2.5-8.4s.6-4.5,1.8-6.3c1.2-1.9,2.9-3.3,5.1-4.3,2.2-1,4.8-1.5,7.8-1.5s4.4.3,6.4.9c2,.6,3.6,1.5,4.9,2.6v-1.5c-.1-.2-.1-.5-.1-.9s.1-.6.4-.8c.2-.2.5-.4.9-.4h1.3c.4,0,.6.1.9.3.2.2.3.5.3.9v4c-.2,1.8-.2,3.1-.2,4s0,1.5.1,2.9v2.9c0,.3,0,.6-.3.8-.2.2-.5.4-.9.4h-1.4c-.4,0-.6-.1-.9-.4-.2-.2-.3-.5-.3-.9,0-3.8-1-6.7-3-8.7-2-2.1-4.7-3.1-8-3.1s-4.4.6-5.8,1.9c-1.4,1.3-2.1,3-2.1,5.2s.5,3.6,1.5,4.8c1,1.2,2.8,2.4,5.4,3.6l5.4,2.4c3.8,1.7,6.5,3.6,8.1,5.7,1.7,2.2,2.5,5,2.5,8.4s-.6,4.5-1.8,6.3c-1.2,1.9-2.9,3.3-5.1,4.3-2.2,1-4.9,1.5-7.8,1.5s-4.4-.3-6.4-.9c-2-.6-3.6-1.5-4.9-2.6v1.5c.1.2.1.5.1.9s-.1.6-.4.8-.5.4-.9.4h-1.3Z"/>
      <path class="st0" d="M182.8,69.8c-.4,0-.7-.1-.9-.3-.2-.2-.4-.5-.4-.9v-.9c0-.4.1-.7.4-.9s.5-.4.9-.4h5.1c1.2,0,2.1-.1,2.6-.3.5-.2.9-.6,1.1-1.3.2-.6.3-1.7.3-3.1v-29.8c0-1.4-.1-2.4-.3-3-.2-.6-.6-1-1.1-1.3-.5-.2-1.4-.3-2.6-.3h-5.1c-.4,0-.7-.1-.9-.4s-.4-.5-.4-.9v-.9c0-.4.1-.6.4-.9.2-.2.5-.3.9-.3,1.9,0,4.2,0,6.9.1,2.5,0,4.4.1,5.7.1s3.2,0,5.7-.1c2.7,0,5-.1,6.9-.1s.7.1.9.3c.2.2.4.5.4.9v.9c0,.4-.1.7-.4.9s-.5.4-.9.4h-5.1c-1.2,0-2.1.1-2.6.3-.5.2-.9.6-1.1,1.3-.2.6-.3,1.6-.3,3v29.8c0,1.4.1,2.5.3,3.1.2.6.6,1.1,1.1,1.3.5.2,1.4.3,2.6.3h5.1c.4,0,.7.1.9.4s.4.5.4.9v.9c0,.4-.1.6-.4.9-.2.2-.5.3-.9.3-1.9,0-4.2,0-6.9-.1-2.5,0-4.4-.1-5.7-.1s-3.2,0-5.7.1c-2.7,0-5,.1-6.9.1Z"/>
      <path class="st0" d="M253.4,25.1v.7c0,.3-.1.6-.3.8-.2.2-.5.4-.9.4h-1.2c-1,0-1.7.2-2.1.6-.4.4-.6,1.1-.6,2.1v39.5c0,.3,0,.5-.3.7-.2.2-.4.3-.7.3h-3.3c-.4,0-.6-.2-.8-.5l-17.2-32.8v26.5c0,1.3.2,2.2.7,2.7.5.5,1.2.7,2.3.7h1.8c.3,0,.6.1.9.3.2.2.3.5.3.9v.7c0,.3-.1.6-.3.8-.2.2-.5.4-.9.4h-3c-1.3-.1-2.4-.2-3-.2s-1.8,0-3.3.1h-3.4c-.3,0-.6,0-.8-.3-.2-.3-.4-.5-.4-.8v-.7c0-.3.1-.6.4-.9.3-.2.5-.3.8-.3h1.8c1.1,0,1.8-.2,2.1-.7.3-.4.5-1.3.5-2.7V30.5l-.5-1c-.5-1.1-1.1-1.8-1.7-2.1-.6-.3-1.5-.4-2.8-.4s-.6-.1-.8-.4c-.2-.3-.4-.5-.4-.8v-.7c0-.3.1-.6.4-.9.2-.2.5-.3.8-.3h1.2c.4,0,.8,0,1.2,0,.5,0,.9,0,1.3,0,.4,0,.8,0,1.2,0h2c.3-.1.9-.1,1.6-.1s.5,0,.7.2c.1.1.3.3.5.6l17.4,33.8v-28.8c0-1.1-.1-1.8-.4-2.2-.3-.3-1-.5-2.2-.5h-3c-.3,0-.6-.1-.8-.4-.3-.3-.4-.5-.4-.8v-.7c0-.3.1-.6.4-.9.2-.2.5-.3.8-.3h3.7c1.6.1,2.8.2,3.7.2s1.5,0,2.8-.1h2.7c.4,0,.6,0,.9.3.2.2.3.5.3.9Z"/>
      <path class="st0" d="M287.3,36.2v-.9c0-2-.3-3.6-.8-4.8-.6-1.2-1.4-2.1-2.5-2.7s-2.5-.8-4.4-.8h-10.3v17h5.8c1.6,0,2.8-.4,3.4-1.1.6-.7,1-1.7,1-3v-1.1c0-.3,0-.6,0-1.1s.1-.6.4-.9c.3-.2.5-.3.8-.3h1.3c.4,0,.6.1.9.3.2.2.3.5.3.9v3.9c-.1,1.8-.2,3.1-.2,3.9s0,2,.1,3.6v3.7c0,.3,0,.6-.3.9-.2.2-.5.4-.9.4h-1.3c-.3,0-.6-.1-.8-.4-.2-.3-.4-.5-.4-.9s0-.8,0-1v-1c0-2.7-1.5-4-4.4-4h-5.8v16.3c0,1.3.3,2.2.8,2.7.6.5,1.4.7,2.5.7h6.6c1.8,0,3.3-.3,4.5-.8,1.1-.5,2-1.5,2.5-2.8.6-1.3.8-3.2.8-5.5v-1.6c0-.3.1-.6.4-.9.2-.2.5-.3.8-.3h1.1c.4,0,.6.1.9.3.2.2.3.5.3.9v3.4c-.2,1.7-.2,3-.2,3.7s0,1.8.1,3.1v2c0,.5,0,.9-.2,1.1s-.5.3-1.1.3h-31.6c-.3,0-.6-.1-.8-.4-.3-.2-.4-.5-.4-.8v-.6c0-.3.1-.7.4-.9.2-.2.5-.4.8-.4h1.9c1.3,0,2.1-.2,2.5-.6.4-.4.6-1.3.6-2.7V30.4c0-1.4-.1-2.3-.5-2.7-.3-.4-1-.6-2-.6h-2.1c-.3,0-.6-.1-.8-.4-.2-.2-.4-.5-.4-.9v-.6c0-.4.1-.7.4-.9.3-.2.5-.3.8-.3h31.4c.5,0,.9.1,1.1.3.2.2.3.5.3,1.1v1.8c-.1,1.2-.2,2.1-.2,2.9s0,1.8.2,3.2v2.9c0,.3,0,.6-.3.8-.2.2-.5.4-.9.4h-1.1c-.3,0-.6-.1-.8-.4-.2-.2-.4-.5-.4-.8Z"/>
    </g>
    <g>
      <g>
        <path class="st0" d="M357.8,25.1v.7c0,.7-.5,1.2-1.2,1.2h-1.2c-2.1,0-2.7.6-2.7,2.7v39.3c0,.5-.4.9-.9.9h-3.3c-.3,0-.6-.1-.8-.5l-17.1-32.6v26.3c0,2.7.9,3.3,3,3.3h1.8c.7,0,1.2.5,1.2,1.2v.7c0,.7-.5,1.2-1.2,1.2-2,0-3.9-.2-5.9-.2s-4.4.2-6.6.2-1.2-.5-1.2-1.2v-.7c0-.7.5-1.2,1.2-1.2h1.7c2.1,0,2.7-.6,2.7-3.3V30.4l-.5-1c-1.1-2.2-2.1-2.5-4.5-2.5s-1.2-.5-1.2-1.2v-.7c0-.7.5-1.2,1.2-1.2,1.6,0,3.3.1,4.9.1s2.4-.1,3.6-.1.9.1,1.2.8l17.4,33.6v-28.7c0-2.1-.2-2.7-2.6-2.7h-3c-.7,0-1.2-.5-1.2-1.2v-.7c0-.7.5-1.2,1.2-1.2,2.5,0,4.9.2,7.3.2s3.7-.2,5.5-.2,1.2.5,1.2,1.2Z"/>
        <path class="st0" d="M396.4,66.4c.7,0,1.2.5,1.2,1.2v.7c0,.7-.5,1.2-1.2,1.2-2.3,0-4.1-.3-5.9-.3-2.7,0-5.5.3-8.2.3s-1.2-.5-1.2-1.2v-.7c0-.7.5-1.2,1.2-1.2h3.1c1.4,0,1.9-.4,1.4-2l-2.9-9.7h-12.6l-2.7,8.7c-.7,2.1-.2,2.9,1.7,2.9h3.4c.7,0,1.2.5,1.2,1.2v.7c0,.7-.5,1.2-1.2,1.2-2.1,0-4.3-.3-6.4-.3s-4.1.3-5.8.3-1.2-.5-1.2-1.2v-.7c0-.7.5-1.2,1.2-1.2h.9c1.3,0,1.8-.5,2.4-2.3l11.2-35.5-1.2-3.9c-.3-.9,0-1.3.8-1.3h4.7c.7,0,.9.1,1.1.8l12.2,40c.6,1.9,1.1,2.3,2.4,2.3h.5ZM372.2,51.6h10.6l-5.3-17.4-5.3,17.4Z"/>
        <path class="st0" d="M432.5,34.7c0,.6,0,1.2,0,1.8s-.1.6-.3.8c-.2.2-.5.4-.9.4h-1.5c-.3,0-.6-.1-.8-.4-.3-.2-.4-.5-.4-.8v-3.4c0-1.5-.2-2.7-.6-3.5-.4-.9-1-1.6-2-2.1-1-.5-2.3-.7-4.1-.7h-3.2v36.5c0,1.3.2,2.2.5,2.7.3.4,1,.6,2,.6h4.2c.3,0,.6.1.8.4.3.2.4.5.4.9v.6c0,.3-.1.6-.3.8-.2.3-.5.4-.9.4h-5c-2.2-.1-3.9-.2-5-.2s-2.8,0-5,.1h-5c-.3,0-.6,0-.8-.3-.2-.2-.4-.5-.4-.8v-.6c0-.4.1-.7.4-.9s.5-.4.8-.4h4.2c1,0,1.6-.2,2-.6.3-.4.5-1.3.5-2.7V26.9h-3.2c-1.8,0-3.2.2-4.1.7-1,.5-1.6,1.2-2,2.1-.4.9-.6,2.1-.6,3.5v3.4c0,.3-.1.6-.3.8-.2.2-.5.4-.9.4h-1.5c-.3,0-.6-.1-.8-.4-.3-.2-.4-.5-.4-.8,0-.8,0-2,.1-3.7v-3.6c0,0,0-2.8,0-2.8,0-1.2-.1-2.2-.1-2.7s.1-.6.4-.9c.2-.2.5-.3.8-.3h1.3c.4,0,.6.1.9.3.2.2.3.5.3.9v.4h27.1v-.4c0-.4.1-.6.4-.9.3-.2.5-.3.8-.3h1.3c.4,0,.6.1.9.3.2.2.3.5.3.9v2.7c-.1,1.3-.2,2.2-.2,2.8s0,1.2,0,1.8c0,.6,0,1.2.1,1.8,0,.6,0,1.2,0,1.8Z"/>
        <path class="st0" d="M456.2,70.6c-4.6,0-8-1.3-10.4-3.8-2.4-2.5-3.6-6.3-3.6-11.2v-25.2c0-1.3-.1-2.2-.4-2.7-.3-.5-.9-.7-1.8-.7h-.5c-.4,0-.6-.1-.9-.3s-.3-.5-.3-.8v-.7c0-.4.1-.6.4-.9s.5-.3.8-.3h3.2c1.3.2,2.4.2,3.1.2s2,0,3.6-.1h3.6c.4,0,.6,0,.9.3.2.2.3.5.3.9v.7c0,.4-.1.6-.4.9-.3.2-.6.3-1.1.3h-1c-.9,0-1.6.2-1.9.7-.3.4-.5,1.3-.5,2.7v25.7c0,3.1.6,5.6,1.9,7.5,1.3,1.9,3.4,2.8,6.4,2.8s5.2-1.1,6.7-3.2c1.5-2.1,2.2-5.2,2.2-9.3v-24.2c0-1.1-.1-1.8-.4-2.2-.3-.3-1-.5-2.2-.5h-2.3c-.3,0-.6-.1-.8-.4-.2-.2-.4-.5-.4-.8v-.7c0-.4.1-.6.4-.9.2-.2.5-.3.8-.3h3.5c1.5.2,2.7.2,3.4.2s1.3,0,2.3-.1h2.3c.4,0,.6,0,.9.3.2.2.3.5.3.9v.7c0,.3-.1.6-.3.8-.2.2-.5.4-.9.4h-.5c-1,0-1.7.2-2.1.6s-.6,1.1-.6,2.1v25.4c0,4.7-1.2,8.5-3.5,11.3-2.3,2.8-5.8,4.2-10.4,4.2Z"/>
        <path class="st0" d="M515.9,61.3c0-.7-.7-1.1-1.3-1.1h-.6c-.4,0-.7.1-.9.4-.3.2-.4.5-.4.9,0,1.7-.5,3-2.1,3-2.8,0-2.8-7.5-4.1-11-.9-2.6-2.9-4.7-5.2-5.9,1.6-.2,3.2-.7,4.6-1.3,2.2-1.1,4-2.5,5.2-4.4,1.2-1.9,1.8-4,1.8-6.3,0-4.1-1.4-7.1-4.1-8.8-2.7-1.8-6.2-2.7-10.4-2.7h-17.7c-.3,0-.6.1-.8.3-.2.2-.4.5-.4.9v.6c0,.4.1.7.4.9.2.2.5.4.8.4h2.1c1,0,1.7.2,2,.6.3.4.5,1.3.5,2.7v33c0,1.4-.2,2.3-.6,2.7-.4.4-1.2.6-2.5.6h-1.9c-.3,0-.6.1-.8.4-.2.2-.4.5-.4.9v.6c0,.3.1.6.4.8.2.2.5.4.8.4h4.2c1.9-.2,3.3-.2,4.2-.2s2.3,0,4.2.1h4.2c.4,0,.6,0,.9-.3.2-.2.3-.5.3-.8v-.6c0-.4-.1-.7-.4-.9-.2-.2-.5-.4-.8-.4h-2.1c-1.3,0-2.1-.2-2.5-.6-.4-.4-.6-1.3-.6-2.7v-15.6h2.4c5.3.2,6.6,8.2,8,14.4.8,3.6,3.1,7.8,7.1,7.8s6.3-2.8,6.3-7.5,0-.3,0-1.2ZM497.9,27c2.2,0,4.1.7,5.5,2.2,1.4,1.5,2.1,3.7,2.1,6.6s-.7,4.9-2.2,6.5c-1.5,1.7-3.9,2.5-7.3,2.5h-3.9v-17.9h5.8Z"/>
        <path class="st0" d="M551.2,36.2v-.9c0-2-.3-3.6-.8-4.8-.5-1.2-1.3-2.1-2.4-2.6s-2.5-.9-4.4-.9h-10.3v17h5.8c1.6,0,2.8-.3,3.4-1.1.7-.7,1-1.7,1-2.9v-1.1c0-.3,0-.6,0-1.1s.1-.6.4-.9c.2-.2.5-.3.8-.3h1.3c.3,0,.6.1.9.3.2.2.3.5.3.9v3.9c-.1,1.8-.2,3.1-.2,4s0,2,.1,3.6v3.7c0,.3,0,.6-.3.8-.2.2-.5.4-.9.4h-1.3c-.3,0-.6-.1-.8-.4-.3-.2-.4-.5-.4-.8,0-.4,0-.8,0-1v-1c0-2.7-1.5-4-4.4-4h-5.8v16.4c0,1.3.3,2.2.8,2.7s1.4.7,2.5.7h6.6c1.8,0,3.3-.3,4.5-.8,1.2-.5,2-1.5,2.5-2.8.6-1.3.8-3.2.8-5.5v-1.6c0-.4.1-.7.4-.9.2-.2.5-.3.8-.3h1.1c.3,0,.6.1.9.3.2.2.3.5.3.9v3.4c-.2,1.7-.2,3-.2,3.8s0,1.8.1,3.1v2c0,.5,0,.9-.2,1.1-.2.2-.5.3-1.1.3h-31.6c-.3,0-.6-.1-.8-.4-.2-.3-.4-.5-.4-.8v-.6c0-.3.1-.6.4-.9.3-.2.5-.4.8-.4h1.9c1.3,0,2.1-.2,2.5-.6.4-.4.6-1.3.6-2.7V30.4c0-1.4-.2-2.3-.5-2.7-.3-.4-1-.6-2-.6h-2.1c-.3,0-.6-.1-.8-.4-.3-.3-.4-.6-.4-.9v-.6c0-.4.1-.6.4-.9.2-.2.5-.3.8-.3h31.4c.5,0,.9,0,1.1.3.2.2.3.5.3,1.1v1.8c-.2,1.2-.2,2.1-.2,2.9s0,1.8.1,3.2v2.9c0,.3,0,.6-.3.8-.2.3-.5.4-.9.4h-1.1c-.3,0-.6-.1-.8-.4-.3-.2-.4-.5-.4-.8Z"/>
      </g>
      <g>
        <path class="st0" d="M357.8,25.1v.7c0,.7-.5,1.2-1.2,1.2h-1.2c-2.1,0-2.7.6-2.7,2.7v39.3c0,.5-.4.9-.9.9h-3.3c-.3,0-.6-.1-.8-.5l-17.1-32.6v26.3c0,2.7.9,3.3,3,3.3h1.8c.7,0,1.2.5,1.2,1.2v.7c0,.7-.5,1.2-1.2,1.2-2,0-3.9-.2-5.9-.2s-4.4.2-6.6.2-1.2-.5-1.2-1.2v-.7c0-.7.5-1.2,1.2-1.2h1.7c2.1,0,2.7-.6,2.7-3.3V30.4l-.5-1c-1.1-2.2-2.1-2.5-4.5-2.5s-1.2-.5-1.2-1.2v-.7c0-.7.5-1.2,1.2-1.2,1.6,0,3.3.1,4.9.1s2.4-.1,3.6-.1.9.1,1.2.8l17.4,33.6v-28.7c0-2.1-.2-2.7-2.6-2.7h-3c-.7,0-1.2-.5-1.2-1.2v-.7c0-.7.5-1.2,1.2-1.2,2.5,0,4.9.2,7.3.2s3.7-.2,5.5-.2,1.2.5,1.2,1.2Z"/>
        <path class="st0" d="M396.4,66.4c.7,0,1.2.5,1.2,1.2v.7c0,.7-.5,1.2-1.2,1.2-2.3,0-4.1-.3-5.9-.3-2.7,0-5.5.3-8.2.3s-1.2-.5-1.2-1.2v-.7c0-.7.5-1.2,1.2-1.2h3.1c1.4,0,1.9-.4,1.4-2l-2.9-9.7h-12.6l-2.7,8.7c-.7,2.1-.2,2.9,1.7,2.9h3.4c.7,0,1.2.5,1.2,1.2v.7c0,.7-.5,1.2-1.2,1.2-2.1,0-4.3-.3-6.4-.3s-4.1.3-5.8.3-1.2-.5-1.2-1.2v-.7c0-.7.5-1.2,1.2-1.2h.9c1.3,0,1.8-.5,2.4-2.3l11.2-35.5-1.2-3.9c-.3-.9,0-1.3.8-1.3h4.7c.7,0,.9.1,1.1.8l12.2,40c.6,1.9,1.1,2.3,2.4,2.3h.5ZM372.2,51.6h10.6l-5.3-17.4-5.3,17.4Z"/>
        <path class="st0" d="M432.5,34.7c0,.6,0,1.2,0,1.8s-.1.6-.3.8c-.2.2-.5.4-.9.4h-1.5c-.3,0-.6-.1-.8-.4-.3-.2-.4-.5-.4-.8v-3.4c0-1.5-.2-2.7-.6-3.5-.4-.9-1-1.6-2-2.1-1-.5-2.3-.7-4.1-.7h-3.2v36.5c0,1.3.2,2.2.5,2.7.3.4,1,.6,2,.6h4.2c.3,0,.6.1.8.4.3.2.4.5.4.9v.6c0,.3-.1.6-.3.8-.2.3-.5.4-.9.4h-5c-2.2-.1-3.9-.2-5-.2s-2.8,0-5,.1h-5c-.3,0-.6,0-.8-.3-.2-.2-.4-.5-.4-.8v-.6c0-.4.1-.7.4-.9s.5-.4.8-.4h4.2c1,0,1.6-.2,2-.6.3-.4.5-1.3.5-2.7V26.9h-3.2c-1.8,0-3.2.2-4.1.7-1,.5-1.6,1.2-2,2.1-.4.9-.6,2.1-.6,3.5v3.4c0,.3-.1.6-.3.8-.2.2-.5.4-.9.4h-1.5c-.3,0-.6-.1-.8-.4-.3-.2-.4-.5-.4-.8,0-.8,0-2,.1-3.7v-3.6c0,0,0-2.8,0-2.8,0-1.2-.1-2.2-.1-2.7s.1-.6.4-.9c.2-.2.5-.3.8-.3h1.3c.4,0,.6.1.9.3.2.2.3.5.3.9v.4h27.1v-.4c0-.4.1-.6.4-.9.3-.2.5-.3.8-.3h1.3c.4,0,.6.1.9.3.2.2.3.5.3.9v2.7c-.1,1.3-.2,2.2-.2,2.8s0,1.2,0,1.8c0,.6,0,1.2.1,1.8,0,.6,0,1.2,0,1.8Z"/>
        <path class="st0" d="M456.2,70.6c-4.6,0-8-1.3-10.4-3.8-2.4-2.5-3.6-6.3-3.6-11.2v-25.2c0-1.3-.1-2.2-.4-2.7-.3-.5-.9-.7-1.8-.7h-.5c-.4,0-.6-.1-.9-.3s-.3-.5-.3-.8v-.7c0-.4.1-.6.4-.9s.5-.3.8-.3h3.2c1.3.2,2.4.2,3.1.2s2,0,3.6-.1h3.6c.4,0,.6,0,.9.3.2.2.3.5.3.9v.7c0,.4-.1.6-.4.9-.3.2-.6.3-1.1.3h-1c-.9,0-1.6.2-1.9.7-.3.4-.5,1.3-.5,2.7v25.7c0,3.1.6,5.6,1.9,7.5,1.3,1.9,3.4,2.8,6.4,2.8s5.2-1.1,6.7-3.2c1.5-2.1,2.2-5.2,2.2-9.3v-24.2c0-1.1-.1-1.8-.4-2.2-.3-.3-1-.5-2.2-.5h-2.3c-.3,0-.6-.1-.8-.4-.2-.2-.4-.5-.4-.8v-.7c0-.4.1-.6.4-.9.2-.2.5-.3.8-.3h3.5c1.5.2,2.7.2,3.4.2s1.3,0,2.3-.1h2.3c.4,0,.6,0,.9.3.2.2.3.5.3.9v.7c0,.3-.1.6-.3.8-.2.2-.5.4-.9.4h-.5c-1,0-1.7.2-2.1.6s-.6,1.1-.6,2.1v25.4c0,4.7-1.2,8.5-3.5,11.3-2.3,2.8-5.8,4.2-10.4,4.2Z"/>
        <path class="st0" d="M515.9,61.3c0-.7-.7-1.1-1.3-1.1h-.6c-.4,0-.7.1-.9.4-.3.2-.4.5-.4.9,0,1.7-.5,3-2.1,3-2.8,0-2.8-7.5-4.1-11-.9-2.6-2.9-4.7-5.2-5.9,1.6-.2,3.2-.7,4.6-1.3,2.2-1.1,4-2.5,5.2-4.4,1.2-1.9,1.8-4,1.8-6.3,0-4.1-1.4-7.1-4.1-8.8-2.7-1.8-6.2-2.7-10.4-2.7h-17.7c-.3,0-.6.1-.8.3-.2.2-.4.5-.4.9v.6c0,.4.1.7.4.9.2.2.5.4.8.4h2.1c1,0,1.7.2,2,.6.3.4.5,1.3.5,2.7v33c0,1.4-.2,2.3-.6,2.7-.4.4-1.2.6-2.5.6h-1.9c-.3,0-.6.1-.8.4-.2.2-.4.5-.4.9v.6c0,.3.1.6.4.8.2.2.5.4.8.4h4.2c1.9-.2,3.3-.2,4.2-.2s2.3,0,4.2.1h4.2c.4,0,.6,0,.9-.3.2-.2.3-.5.3-.8v-.6c0-.4-.1-.7-.4-.9-.2-.2-.5-.4-.8-.4h-2.1c-1.3,0-2.1-.2-2.5-.6-.4-.4-.6-1.3-.6-2.7v-15.6h2.4c5.3.2,6.6,8.2,8,14.4.8,3.6,3.1,7.8,7.1,7.8s6.3-2.8,6.3-7.5,0-.3,0-1.2ZM497.9,27c2.2,0,4.1.7,5.5,2.2,1.4,1.5,2.1,3.7,2.1,6.6s-.7,4.9-2.2,6.5c-1.5,1.7-3.9,2.5-7.3,2.5h-3.9v-17.9h5.8Z"/>
        <path class="st0" d="M551.2,36.2v-.9c0-2-.3-3.6-.8-4.8-.5-1.2-1.3-2.1-2.4-2.6s-2.5-.9-4.4-.9h-10.3v17h5.8c1.6,0,2.8-.3,3.4-1.1.7-.7,1-1.7,1-2.9v-1.1c0-.3,0-.6,0-1.1s.1-.6.4-.9c.2-.2.5-.3.8-.3h1.3c.3,0,.6.1.9.3.2.2.3.5.3.9v3.9c-.1,1.8-.2,3.1-.2,4s0,2,.1,3.6v3.7c0,.3,0,.6-.3.8-.2.2-.5.4-.9.4h-1.3c-.3,0-.6-.1-.8-.4-.3-.2-.4-.5-.4-.8,0-.4,0-.8,0-1v-1c0-2.7-1.5-4-4.4-4h-5.8v16.4c0,1.3.3,2.2.8,2.7s1.4.7,2.5.7h6.6c1.8,0,3.3-.3,4.5-.8,1.2-.5,2-1.5,2.5-2.8.6-1.3.8-3.2.8-5.5v-1.6c0-.4.1-.7.4-.9.2-.2.5-.3.8-.3h1.1c.3,0,.6.1.9.3.2.2.3.5.3.9v3.4c-.2,1.7-.2,3-.2,3.8s0,1.8.1,3.1v2c0,.5,0,.9-.2,1.1-.2.2-.5.3-1.1.3h-31.6c-.3,0-.6-.1-.8-.4-.2-.3-.4-.5-.4-.8v-.6c0-.3.1-.6.4-.9.3-.2.5-.4.8-.4h1.9c1.3,0,2.1-.2,2.5-.6.4-.4.6-1.3.6-2.7V30.4c0-1.4-.2-2.3-.5-2.7-.3-.4-1-.6-2-.6h-2.1c-.3,0-.6-.1-.8-.4-.3-.3-.4-.6-.4-.9v-.6c0-.4.1-.6.4-.9.2-.2.5-.3.8-.3h31.4c.5,0,.9,0,1.1.3.2.2.3.5.3,1.1v1.8c-.2,1.2-.2,2.1-.2,2.9s0,1.8.1,3.2v2.9c0,.3,0,.6-.3.8-.2.3-.5.4-.9.4h-1.1c-.3,0-.6-.1-.8-.4-.3-.2-.4-.5-.4-.8Z"/>
      </g>
    </g>
  </g>
  <path class="st0" d="M56.6,93.7H23.9c-13.2,0-23.9-10.7-23.9-23.9V24.1C0,10.9,10.7.1,23.9.1h32.1v.9H23.9C11.2,1,.9,11.4.9,24.1v45.7c0,12.7,10.3,23,23,23h32.6v.9Z"/>
  <path class="st0" d="M564.4,93.7h-32.6v-.9h32.6c12.7,0,23-10.3,23-23V24.1c0-12.7-10.3-23-23-23h-32.1V.1h32.1c13.2,0,23.9,10.7,23.9,23.9v45.7c0,13.2-10.7,23.9-23.9,23.9Z"/>
</svg>